<svg width="14" height="13" viewBox="0 0 14 13" fill="none" xmlns="http://www.w3.org/2000/svg">
<path fill-rule="evenodd" clip-rule="evenodd" d="M5.33333 0.75C5.778 0.75 6.222 0.918667 6.66667 1.25667C7.11133 0.918667 7.55533 0.75 8 0.75H12C12.3536 0.75 12.6928 0.890476 12.9428 1.14052C13.1929 1.39057 13.3333 1.72971 13.3333 2.08333V10.75C13.3333 11.1036 13.1929 11.4428 12.9428 11.6928C12.6928 11.9429 12.3536 12.0833 12 12.0833H7.33333C7.33333 12.4513 7.03333 12.75 6.66667 12.75C6.3 12.75 6 12.45 6 12.0833H1.33333C0.979711 12.0833 0.640573 11.9429 0.390524 11.6928C0.140476 11.4428 0 11.1036 0 10.75V2.08333C0 1.72971 0.140476 1.39057 0.390524 1.14052C0.640573 0.890476 0.979711 0.75 1.33333 0.75H5.33333ZM5.33333 2.08333H1.33333V10.75H6V2.75C6 2.38333 5.7 2.08333 5.33333 2.08333ZM12 2.08333H8C7.63333 2.08333 7.33333 2.38333 7.33333 2.75V10.75H12V2.08333Z" fill="#1A1A1A"/>
</svg>
