<svg width="20" height="21" viewBox="0 0 20 21" fill="none" xmlns="http://www.w3.org/2000/svg">
<path d="M19.819 9.41592V18.8203C19.819 19.0341 19.7769 19.2457 19.6951 19.4431C19.6134 19.6406 19.4935 19.82 19.3424 19.9711C19.1912 20.1222 19.0118 20.2421 18.8144 20.3239C18.6169 20.4057 18.4053 20.4478 18.1916 20.4478H18.1914L13.3087 20.447C13.0929 20.447 12.8859 20.3613 12.7334 20.2087C12.5808 20.0561 12.4951 19.8491 12.4951 19.6333V15.5648C12.4951 14.2166 11.4021 13.1236 10.0539 13.1236C8.70574 13.1236 7.61282 14.2166 7.61282 15.5648V19.6333C7.61282 19.8491 7.5271 20.0561 7.37453 20.2087C7.22195 20.3613 7.015 20.447 6.79921 20.447L1.91766 20.4478C1.70393 20.4478 1.49228 20.4057 1.29481 20.3239C1.09734 20.2422 0.917909 20.1223 0.766768 19.9712C0.615627 19.82 0.495734 19.6406 0.413936 19.4432C0.332139 19.2457 0.290038 19.0341 0.290039 18.8203V9.41587C0.290237 9.18915 0.337713 8.96496 0.429436 8.75762C0.521159 8.55028 0.655113 8.36435 0.822743 8.2117L8.95913 0.813682C9.258 0.539941 9.64857 0.388089 10.0539 0.388062C10.4591 0.388034 10.8497 0.539832 11.1486 0.813534L19.2864 8.21175C19.454 8.36443 19.5879 8.55037 19.6796 8.7577C19.7713 8.96504 19.8188 9.18921 19.819 9.41592Z" fill="white"/>
</svg>
