<svg width="12" height="12" viewBox="0 0 12 12" fill="none" xmlns="http://www.w3.org/2000/svg">
<path d="M11.1975 12C9.9335 12 8.6375 11.6835 7.3095 11.0505C5.9815 10.4175 4.7455 9.52875 3.6015 8.38425C2.4665 7.24025 1.5825 6.0065 0.9495 4.683C0.3165 3.3595 0 2.066 0 0.8025C0 0.5775 0.0750001 0.3875 0.225 0.2325C0.375 0.0775 0.5625 0 0.7875 0H2.64225C2.84625 0 3.02425 0.06425 3.17625 0.19275C3.32825 0.32125 3.431 0.486 3.4845 0.687L3.8565 2.475C3.8915 2.685 3.88525 2.86825 3.83775 3.02475C3.79025 3.18125 3.707 3.3095 3.588 3.4095L1.9425 4.944C2.2505 5.5025 2.59075 6.0215 2.96325 6.501C3.33575 6.9805 3.73325 7.43475 4.15575 7.86375C4.59075 8.29875 5.05925 8.70375 5.56125 9.07875C6.06325 9.45325 6.61425 9.80675 7.21425 10.1392L8.8185 8.5065C8.9405 8.375 9.07775 8.28825 9.23025 8.24625C9.38225 8.20475 9.55075 8.1965 9.73575 8.2215L11.313 8.544C11.517 8.594 11.6825 8.69675 11.8095 8.85225C11.9365 9.00775 12 9.18575 12 9.38625V11.2125C12 11.4375 11.9225 11.625 11.7675 11.775C11.6125 11.925 11.4225 12 11.1975 12Z" fill="#1A1A1A"/>
</svg>
