<svg width="12" height="16" viewBox="0 0 12 16" fill="none" xmlns="http://www.w3.org/2000/svg">
<path d="M10.1822 16C10.5822 16 10.9246 15.8576 11.2094 15.5727C11.4943 15.2879 11.6367 14.9455 11.6367 14.5455V6.54545C11.6367 6.14545 11.4943 5.80303 11.2094 5.51818C10.9246 5.23333 10.5822 5.09091 10.1822 5.09091H8.00036V6.54545H10.1822V14.5455H1.4549V6.54545H3.63672V5.09091H1.4549C1.0549 5.09091 0.712476 5.23333 0.427628 5.51818C0.142778 5.80303 0.000354767 6.14545 0.000354767 6.54545V14.5455C0.000354767 14.9455 0.142778 15.2879 0.427628 15.5727C0.712476 15.8576 1.0549 16 1.4549 16H10.1822ZM6.54581 10.9091V2.78182L7.70945 3.94545L8.72763 2.90909L5.81854 0L2.90945 2.90909L3.92763 3.94545L5.09126 2.78182V10.9091H6.54581Z" fill="#F44336"/>
</svg>
